grf
version=1
nRows=9
nColumns=37
inDegrees=no
endheader
time	ground_force_1_vx	ground_force_1_vy	ground_force_1_vz	ground_force_1_px	ground_force_1_py	ground_force_1_pz	ground_moment_1_mx	ground_moment_1_my	ground_moment_1_mz	ground_force_2_vx	ground_force_2_vy	ground_force_2_vz	ground_force_2_px	ground_force_2_py	ground_force_2_pz	ground_moment_2_mx	ground_moment_2_my	ground_moment_2_mz	ground_force_3_vx	ground_force_3_vy	ground_force_3_vz	ground_force_3_px	ground_force_3_py	ground_force_3_pz	ground_moment_3_mx	ground_moment_3_my	ground_moment_3_mz	ground_force_4_vx	ground_force_4_vy	ground_force_4_vz	ground_force_4_px	ground_force_4_py	ground_force_4_pz	ground_moment_4_mx	ground_moment_4_my	ground_moment_4_mz
      0.00000000	      0.00000000	     -0.00000000	      0.00000000	      0.00000000	      0.00000000	      0.00000000	      0.00000000	      0.00000000	      0.00000000	      7.85052490	     53.30197525	   -584.52075195	   -332.44502604	  -1002.91334214	      0.00000000	      0.00000000	      0.00000000	    705.24738995	     -5.85107667	     -6.27274891	   -284.21694946	   -325.45428167	   -733.22949958	      0.00000000	      0.00000000	     -0.00000000	  -2068.55160972	      0.00000000	     -0.00000000	      0.00000000	      0.00000000	      0.00000000	      0.00000000	      0.00000000	      0.00000000	      0.00000000
      0.01000000	      0.00000000	     -0.00000000	      0.00000000	      0.00000000	      0.00000000	      0.00000000	      0.00000000	      0.00000000	      0.00000000	      7.94396400	     55.70439148	   -591.92956543	   -333.80513321	  -1002.11843611	      0.00000000	      0.00000000	      0.00000000	    948.00565134	     -4.62109763	     -6.17846735	   -272.38629150	   -326.97713254	   -733.57239752	      0.00000000	      0.00000000	     -0.00000000	  -2158.58703844	      0.00000000	     -0.00000000	      0.00000000	      0.00000000	      0.00000000	      0.00000000	      0.00000000	      0.00000000	      0.00000000
      0.02000000	      0.00000000	     -0.00000000	      0.00000000	      0.00000000	      0.00000000	      0.00000000	      0.00000000	      0.00000000	      0.00000000	      8.38129044	     57.14157867	   -601.77410889	   -334.07912578	  -1004.40456964	      0.00000000	      0.00000000	      0.00000000	    916.03033270	     -3.48356467	     -6.10067051	   -264.64837646	   -328.62023793	   -732.43120655	      0.00000000	      0.00000000	     -0.00000000	  -2280.54727995	      0.00000000	     -0.00000000	      0.00000000	      0.00000000	      0.00000000	      0.00000000	      0.00000000	      0.00000000	      0.00000000
      0.03000000	      0.00000000	     -0.00000000	      0.00000000	      0.00000000	      0.00000000	      0.00000000	      0.00000000	      0.00000000	      0.00000000	      8.38813782	     58.90111160	   -608.46392822	   -334.65987098	  -1004.51923574	      0.00000000	      0.00000000	      0.00000000	    926.68953176	     -3.28229957	     -6.08290310	   -260.12692261	   -330.86888744	   -732.70051476	      0.00000000	      0.00000000	     -0.00000000	  -2201.24284586	      0.00000000	     -0.00000000	      0.00000000	      0.00000000	      0.00000000	      0.00000000	      0.00000000	      0.00000000	      0.00000000
      0.04000000	      0.00000000	     -0.00000000	      0.00000000	      0.00000000	      0.00000000	      0.00000000	      0.00000000	      0.00000000	      0.00000000	      8.11815643	     59.96751022	   -610.98181152	   -335.12030437	  -1003.30861972	      0.00000000	      0.00000000	      0.00000000	    909.17557870	     -3.11203199	     -6.00824853	   -257.71142578	   -333.55910569	   -733.23725107	      0.00000000	      0.00000000	     -0.00000000	  -2113.14436171	      0.00000000	     -0.00000000	      0.00000000	      0.00000000	      0.00000000	      0.00000000	      0.00000000	      0.00000000	      0.00000000
      0.05000000	      0.00000000	     -0.00000000	      0.00000000	      0.00000000	      0.00000000	      0.00000000	      0.00000000	      0.00000000	      0.00000000	      8.20996761	     60.79472733	   -612.73632812	   -335.78295364	  -1003.24713679	      0.00000000	      0.00000000	      0.00000000	    897.94440013	     -2.84629899	     -6.10171627	   -255.23973083	   -334.78385269	   -734.76433062	      0.00000000	      0.00000000	     -0.00000000	  -2198.76193937	      0.00000000	     -0.00000000	      0.00000000	      0.00000000	      0.00000000	      0.00000000	      0.00000000	      0.00000000	      0.00000000
      0.06000000	      0.00000000	     -0.00000000	      0.00000000	      0.00000000	      0.00000000	      0.00000000	      0.00000000	      0.00000000	      0.00000000	      7.85052490	     61.57553482	   -614.82165527	   -336.06767159	  -1004.23259591	      0.00000000	      0.00000000	     -0.00000000	    893.86442793	     -3.10751261	     -6.96692153	   -259.44042969	   -336.05296699	   -733.38926236	      0.00000000	      0.00000000	     -0.00000000	  -2105.37549467	      0.00000000	     -0.00000000	      0.00000000	      0.00000000	      0.00000000	      0.00000000	      0.00000000	      0.00000000	      0.00000000
      0.07000000	      0.00000000	     -0.00000000	      0.00000000	      0.00000000	      0.00000000	      0.00000000	      0.00000000	      0.00000000	      0.00000000	      8.47217941	     61.93999863	   -611.04595947	   -337.10607242	  -1002.93629288	      0.00000000	      0.00000000	      0.00000000	    995.96752599	     -3.02163735	     -7.16222546	   -263.26031494	   -337.08190137	   -732.83996479	      0.00000000	      0.00000000	     -0.00000000	  -2172.75846237	      0.00000000	     -0.00000000	      0.00000000	      0.00000000	      0.00000000	      0.00000000	      0.00000000	      0.00000000	      0.00000000
      0.08000000	      0.00000000	     -0.00000000	      0.00000000	      0.00000000	      0.00000000	      0.00000000	      0.00000000	      0.00000000	      0.00000000	      8.65635490	     61.25311661	   -607.49273682	   -337.50403636	  -1003.07379806	      0.00000000	      0.00000000	      0.00000000	    906.10896456	     -3.27089783	     -7.78082199	   -269.88299561	   -337.05903126	   -732.62516324	      0.00000000	      0.00000000	     -0.00000000	  -2244.67292267	      0.00000000	     -0.00000000	      0.00000000	      0.00000000	      0.00000000	      0.00000000	      0.00000000	      0.00000000	      0.00000000
